# xmcd
#
# Track frame offsets: 
#        150
#        14217
#        27550
#        43067
#        53652
#        67700
#        85180
#        96812
#        113340
#        126610
#        139237
#
# Disc length: 2008 seconds
#
# Revision: 1
# Processed by: cddbd v1.4PL0 Copyright (c) Steve Scherf et al.
# Submitted via: ExactAudioCopy v0.90b4
#
DISCID=9507d60b
DTITLE=Barbara Mandrell - The Millennium Collection
DYEAR=2000
DGENRE=Country
TTITLE0=Standing Room Only
TTITLE1=Married But Not To Each Other
TTITLE2=Woman To Woman
TTITLE3=Sleeping Single In A Double Bed
TTITLE4=(If Loving You Is Wrong) I Don't Want It To Be Right
TTITLE5=Years
TTITLE6=Crackers
TTITLE7=I Was Country When Country Wasn't Cool (duet with George Jones
TTITLE7=)
TTITLE8='Till You're Gone
TTITLE9=One Of A Kind Pair Of Fools
TTITLE10=Happy Birthday Dear Heartache
EXTD=
EXTT0=
EXTT1=
EXTT2=
EXTT3=
EXTT4=
EXTT5=
EXTT6=
EXTT7=
EXTT8=
EXTT9=
EXTT10=
PLAYORDER=
